PathFileType	4	(X/Y/Z)	C:\Users\°ÂÌØÂü\Desktop\20210112\bx_n_0_502-Unnamed.trc
DataRate	CameraRate	NumFrames	NumMarkers	Units	OrigDataRate	OrigDataStartFrame	OrigNumFrames
50.00	50.00	       4	0	mm	50.00	283	       376
Frame#	Time	
		

283	5.640	-593.30829	225.24263	1065.22278	-674.34442	271.88605	874.46509	-575.54028	-10.73440	800.31256	-579.92645	204.30753	792.56042	-679.72626	259.57806	744.38275	-714.25037	243.48494	642.66174	-713.37494	237.43721	575.93585	-661.63702	11.21218	517.44537	-666.94598	190.45879	533.08899	-752.05359	252.40675	502.35660	-582.68823	90.15177	1359.95398	-641.49902	-60.33379	162.81287	-761.27734	223.53638	205.82536	-599.46313	-62.89030	158.90074	-882.70691	296.05905	144.52444	-677.15295	58.30189	158.05096	-600.38269	37.92622	166.67999	-546.09100	-12.65320	163.06976	-517.53857	-72.83827	143.35503	-588.95996	183.44142	173.69255	-640.48029	273.77460	160.31590	-601.87750	274.08206	159.79892	-546.78534	212.49162	164.98007	-528.23590	303.92789	146.40553	-736.10199	90.22443	1851.85632	-716.50800	268.00055	1534.09351				-795.39392	179.68077	184.79108	-690.21307	-95.11770	1539.34949	-794.21820	32.33669	174.57231	-789.18567	76.82327	1062.05444	-746.42517	-58.37574	486.17352	-754.67896	-23.13086	206.00555	-876.14905	-78.79788	141.54057	-647.39716	-84.40384	870.57593	-667.00299	-73.72980	754.16693	-693.86035	-46.36594	612.29340	-703.21332	-43.68624	565.46051	-718.78217	141.72644	216.98294	-678.75842	155.08270	157.79218	-581.91071	-20.52640	1052.76770							-724.50336	69.52022	217.17726	
284	5.660	-592.97516	224.93112	1065.13440	-674.05499	271.72601	874.49799	-575.08984	-10.88409	800.22906	-579.59680	203.85349	792.58197	-679.28076	259.14728	744.29187	-714.10632	243.52153	642.66620	-713.33600	237.54239	575.96844	-661.63965	11.14342	517.31299	-666.66699	190.16621	533.23163	-751.81018	252.50786	502.45740	-582.70459	89.96030	1359.95740	-641.67065	-60.11865	162.78773	-761.23834	223.77408	205.90776	-599.15118	-62.67179	158.65414	-882.62170	296.00537	144.52580	-677.71863	57.75111	157.73659	-600.44617	37.84871	166.82945	-546.13342	-12.50162	163.17908	-517.59082	-73.05007	143.38887	-588.87360	183.34412	173.76250	-640.53925	273.89902	160.24518	-602.03278	274.21591	159.72636	-546.78534	212.49162	164.98007	-528.31281	304.02249	146.19852	-736.92383	89.85625	1851.68457	-716.99829	267.94336	1533.78931				-795.49548	179.68875	184.68839	-691.48755	-95.08770	1539.25842	-794.26880	32.22604	174.53224	-788.75745	76.47778	1062.09521	-746.06110	-58.84695	486.01685	-754.67896	-23.13086	206.00555	-876.14905	-78.79788	141.54057	-646.87744	-84.40197	870.08490	-666.48480	-73.98103	754.23218	-693.91040	-46.68760	612.17682	-703.01208	-43.84858	565.41260	-718.78217	141.72644	216.98294	-678.75842	155.08270	157.79218	-581.21246	-20.61230	1052.67029							-724.50336	69.52022	217.17726	
285	5.680	-592.49670	224.54880	1064.64148	-673.54218	272.05167	874.77252	-574.91803	-11.05732	800.14435	-579.46820	203.96161	792.70679	-678.92224	259.01657	744.26849	-713.79785	243.45259	642.64685	-712.97852	237.53784	576.08203	-661.65833	10.91463	517.45490	-666.63013	190.16637	533.13812	-751.54639	252.45956	502.12842	-582.80951	89.69614	1360.24121	-641.67065	-60.11865	162.78773	-761.16760	223.96184	206.13693	-599.56036	-62.42645	158.73152	-882.62695	295.99487	144.56000	-677.75128	57.39268	157.39044	-600.50446	38.02515	166.64645	-545.98639	-12.74496	163.24905	-517.71503	-72.82897	143.08049	-589.09625	183.33681	173.53526	-640.55548	273.84094	160.38210	-602.03192	274.21732	159.82158	-546.73450	212.42813	165.08345	-528.24188	304.07635	146.21542	-737.97748	89.77004	1851.76355	-717.75665	267.87070	1533.54016				-795.46997	179.69064	184.72614	-692.06012	-95.09753	1539.16772	-794.35400	32.12720	174.63283	-787.99500	76.11560	1062.30029	-745.76294	-58.98661	485.79480	-754.46759	-23.35073	206.00487	-876.12219	-78.89765	141.41621	-646.61481	-84.71805	870.06354	-666.36560	-74.06170	753.80096	-693.90881	-46.77064	612.08295	-702.55090	-44.27570	565.48083	-718.78217	141.72644	216.98294	-678.75842	155.08270	157.79218	-581.18024	-20.63853	1052.61292							-724.50336	69.52022	217.17726	
286	5.700	-591.78809	224.41463	1064.45581	-673.27838	271.76242	874.37335	-574.80377	-11.31692	799.77850	-579.00562	204.01329	792.24487	-678.75208	259.07300	744.12366	-713.70660	243.18509	642.53137	-712.92212	237.58014	576.19153	-661.56982	10.78247	517.56909	-666.56616	190.15356	532.99915	-751.31616	252.51149	502.40872	-582.75800	89.57940	1360.39160	-641.67065	-60.11865	162.78773	-761.22900	223.59245	205.82692	-599.37103	-62.40422	158.67584	-882.68542	295.89551	144.40874	-677.57599	57.82462	157.89107	-600.52563	38.05080	166.72955	-546.07147	-12.76065	163.15483	-517.55243	-72.71477	143.17970	-588.97223	183.05954	173.69728	-640.60742	273.87955	160.32146	-602.03278	274.21591	159.72636	-546.78534	212.49162	164.98007	-528.26074	304.00513	146.39989	-738.62775	89.58698	1851.69653	-718.26801	267.98169	1533.48987				-795.46997	179.69064	184.72614	-692.79395	-95.45042	1538.95105	-794.46423	32.14553	174.58195	-787.86255	76.02527	1062.27173	-745.64526	-59.12316	485.85065	-754.93298	-23.50558	206.06590	-876.12219	-78.89765	141.41621	-646.31244	-84.79825	870.05310	-666.13263	-74.15892	753.49951	-693.73602	-46.83402	612.03278	-702.50079	-44.40569	565.35944	-718.65863	141.81343	216.83298	-678.75842	155.08270	157.79218	-580.89502	-20.79391	1052.45142							-724.50336	69.52022	217.17726	
